<svg width="90" height="79" viewBox="0 0 90 79" fill="none" xmlns="http://www.w3.org/2000/svg">
<path d="M83.5714 45.1429H51.4286V73.3571C51.4286 76.4607 48.5357 79 45 79C41.4643 79 38.5714 76.4607 38.5714 73.3571V45.1429H6.42857C2.89286 45.1429 0 42.6036 0 39.5C0 36.3964 2.89286 33.8571 6.42857 33.8571H38.5714V5.64286C38.5714 2.53929 41.4643 0 45 0C48.5357 0 51.4286 2.53929 51.4286 5.64286V33.8571H83.5714C87.1071 33.8571 90 36.3964 90 39.5C90 42.6036 87.1071 45.1429 83.5714 45.1429Z" fill="#D9D9D9"/>
</svg>
